<?xml version="1.0" encoding="UTF-8"?>
<mxfile host="app.diagrams.net" modified="2024-01-31T07:57:25.638Z" agent="Mozilla/5.0 (Windows NT 10.0; Win64; x64) AppleWebKit/537.36 (KHTML, like Gecko) Chrome/121.0.0.0 Safari/537.36 Edg/121.0.0.0" etag="4IIhZnEqUTU7hmjNos8F" version="23.0.2" type="browser">
  <diagram name="第 1 页" id="vUEo2-MpgQnphr21bnQV">
    <mxGraphModel dx="2630" dy="1258" grid="1" gridSize="10" guides="1" tooltips="1" connect="1" arrows="1" fold="1" page="1" pageScale="1" pageWidth="827" pageHeight="1169" math="0" shadow="0">
      <root>
        <mxCell id="0" />
        <mxCell id="1" parent="0" />
        <mxCell id="syjtHdC-8WKVYjB1pEny-132" value="" style="group" vertex="1" connectable="0" parent="1">
          <mxGeometry x="-230" y="250" width="1438.75" height="390.5050000000001" as="geometry" />
        </mxCell>
        <mxCell id="syjtHdC-8WKVYjB1pEny-68" value="&lt;font style=&quot;font-size: 28px;&quot; face=&quot;Times New Roman&quot;&gt;4，8，10，11，15&amp;nbsp;&amp;nbsp;&lt;/font&gt;" style="rounded=0;whiteSpace=wrap;html=1;align=center;" vertex="1" parent="syjtHdC-8WKVYjB1pEny-132">
          <mxGeometry y="258" width="258.75" height="40" as="geometry" />
        </mxCell>
        <mxCell id="syjtHdC-8WKVYjB1pEny-69" value="" style="rounded=0;whiteSpace=wrap;html=1;rotation=90;" vertex="1" parent="syjtHdC-8WKVYjB1pEny-132">
          <mxGeometry x="48.75" y="346.44000000000005" width="61.25" height="26.88" as="geometry" />
        </mxCell>
        <mxCell id="syjtHdC-8WKVYjB1pEny-70" value="" style="endArrow=none;html=1;rounded=0;" edge="1" parent="syjtHdC-8WKVYjB1pEny-132">
          <mxGeometry width="50" height="50" relative="1" as="geometry">
            <mxPoint x="78.4299999999999" y="328" as="sourcePoint" />
            <mxPoint x="78.75" y="288" as="targetPoint" />
          </mxGeometry>
        </mxCell>
        <mxCell id="syjtHdC-8WKVYjB1pEny-71" value="" style="rounded=0;whiteSpace=wrap;html=1;rotation=90;" vertex="1" parent="syjtHdC-8WKVYjB1pEny-132">
          <mxGeometry x="8.75" y="346.44000000000005" width="61.25" height="26.88" as="geometry" />
        </mxCell>
        <mxCell id="syjtHdC-8WKVYjB1pEny-72" value="" style="endArrow=none;html=1;rounded=0;" edge="1" parent="syjtHdC-8WKVYjB1pEny-132">
          <mxGeometry width="50" height="50" relative="1" as="geometry">
            <mxPoint x="38.429999999999836" y="328" as="sourcePoint" />
            <mxPoint x="38.75" y="288" as="targetPoint" />
          </mxGeometry>
        </mxCell>
        <mxCell id="syjtHdC-8WKVYjB1pEny-73" value="" style="rounded=0;whiteSpace=wrap;html=1;rotation=90;" vertex="1" parent="syjtHdC-8WKVYjB1pEny-132">
          <mxGeometry x="91.75" y="346.44000000000005" width="61.25" height="26.88" as="geometry" />
        </mxCell>
        <mxCell id="syjtHdC-8WKVYjB1pEny-74" value="" style="endArrow=none;html=1;rounded=0;" edge="1" parent="syjtHdC-8WKVYjB1pEny-132">
          <mxGeometry width="50" height="50" relative="1" as="geometry">
            <mxPoint x="121.75" y="328" as="sourcePoint" />
            <mxPoint x="121.75" y="289" as="targetPoint" />
          </mxGeometry>
        </mxCell>
        <mxCell id="syjtHdC-8WKVYjB1pEny-75" value="" style="rounded=0;whiteSpace=wrap;html=1;rotation=90;" vertex="1" parent="syjtHdC-8WKVYjB1pEny-132">
          <mxGeometry x="148" y="346.44000000000005" width="61.25" height="26.88" as="geometry" />
        </mxCell>
        <mxCell id="syjtHdC-8WKVYjB1pEny-76" value="" style="endArrow=none;html=1;rounded=0;" edge="1" parent="syjtHdC-8WKVYjB1pEny-132">
          <mxGeometry width="50" height="50" relative="1" as="geometry">
            <mxPoint x="177.75" y="328" as="sourcePoint" />
            <mxPoint x="177.67999999999984" y="290" as="targetPoint" />
          </mxGeometry>
        </mxCell>
        <mxCell id="syjtHdC-8WKVYjB1pEny-77" value="" style="rounded=0;whiteSpace=wrap;html=1;rotation=90;" vertex="1" parent="syjtHdC-8WKVYjB1pEny-132">
          <mxGeometry x="197.5" y="346.44000000000005" width="61.25" height="26.88" as="geometry" />
        </mxCell>
        <mxCell id="syjtHdC-8WKVYjB1pEny-78" value="" style="endArrow=none;html=1;rounded=0;" edge="1" parent="syjtHdC-8WKVYjB1pEny-132">
          <mxGeometry width="50" height="50" relative="1" as="geometry">
            <mxPoint x="226.75" y="328" as="sourcePoint" />
            <mxPoint x="227.17999999999984" y="289" as="targetPoint" />
          </mxGeometry>
        </mxCell>
        <mxCell id="syjtHdC-8WKVYjB1pEny-79" value="&lt;font face=&quot;Times New Roman&quot;&gt;&lt;span style=&quot;font-size: 28px;&quot;&gt;2，23，28&amp;nbsp;&amp;nbsp;&lt;/span&gt;&lt;/font&gt;" style="rounded=0;whiteSpace=wrap;html=1;align=center;" vertex="1" parent="syjtHdC-8WKVYjB1pEny-132">
          <mxGeometry x="298.75" y="258" width="160" height="40" as="geometry" />
        </mxCell>
        <mxCell id="syjtHdC-8WKVYjB1pEny-80" value="" style="rounded=0;whiteSpace=wrap;html=1;rotation=90;" vertex="1" parent="syjtHdC-8WKVYjB1pEny-132">
          <mxGeometry x="354.5" y="346.44000000000005" width="61.25" height="26.88" as="geometry" />
        </mxCell>
        <mxCell id="syjtHdC-8WKVYjB1pEny-81" value="" style="endArrow=none;html=1;rounded=0;" edge="1" parent="syjtHdC-8WKVYjB1pEny-132">
          <mxGeometry width="50" height="50" relative="1" as="geometry">
            <mxPoint x="384.17999999999984" y="328" as="sourcePoint" />
            <mxPoint x="384.5" y="288" as="targetPoint" />
          </mxGeometry>
        </mxCell>
        <mxCell id="syjtHdC-8WKVYjB1pEny-82" value="" style="rounded=0;whiteSpace=wrap;html=1;rotation=90;" vertex="1" parent="syjtHdC-8WKVYjB1pEny-132">
          <mxGeometry x="298.75" y="346.44000000000005" width="61.25" height="26.88" as="geometry" />
        </mxCell>
        <mxCell id="syjtHdC-8WKVYjB1pEny-83" value="" style="endArrow=none;html=1;rounded=0;" edge="1" parent="syjtHdC-8WKVYjB1pEny-132">
          <mxGeometry width="50" height="50" relative="1" as="geometry">
            <mxPoint x="328.42999999999984" y="328" as="sourcePoint" />
            <mxPoint x="328.75" y="288" as="targetPoint" />
          </mxGeometry>
        </mxCell>
        <mxCell id="syjtHdC-8WKVYjB1pEny-84" value="" style="rounded=0;whiteSpace=wrap;html=1;rotation=90;" vertex="1" parent="syjtHdC-8WKVYjB1pEny-132">
          <mxGeometry x="407.5" y="346.44000000000005" width="61.25" height="26.88" as="geometry" />
        </mxCell>
        <mxCell id="syjtHdC-8WKVYjB1pEny-85" value="" style="endArrow=none;html=1;rounded=0;" edge="1" parent="syjtHdC-8WKVYjB1pEny-132">
          <mxGeometry width="50" height="50" relative="1" as="geometry">
            <mxPoint x="437.5" y="328" as="sourcePoint" />
            <mxPoint x="437.5" y="289" as="targetPoint" />
          </mxGeometry>
        </mxCell>
        <mxCell id="syjtHdC-8WKVYjB1pEny-86" value="&lt;font face=&quot;Times New Roman&quot;&gt;&lt;span style=&quot;font-size: 28px;&quot;&gt;2，31，32&amp;nbsp;&amp;nbsp;&lt;/span&gt;&lt;/font&gt;" style="rounded=0;whiteSpace=wrap;html=1;align=center;" vertex="1" parent="syjtHdC-8WKVYjB1pEny-132">
          <mxGeometry x="498.75" y="258" width="160" height="40" as="geometry" />
        </mxCell>
        <mxCell id="syjtHdC-8WKVYjB1pEny-87" value="" style="rounded=0;whiteSpace=wrap;html=1;rotation=90;" vertex="1" parent="syjtHdC-8WKVYjB1pEny-132">
          <mxGeometry x="555.5" y="346.44000000000005" width="61.25" height="26.88" as="geometry" />
        </mxCell>
        <mxCell id="syjtHdC-8WKVYjB1pEny-88" value="" style="endArrow=none;html=1;rounded=0;" edge="1" parent="syjtHdC-8WKVYjB1pEny-132">
          <mxGeometry width="50" height="50" relative="1" as="geometry">
            <mxPoint x="585.1799999999998" y="328" as="sourcePoint" />
            <mxPoint x="585.5" y="288" as="targetPoint" />
          </mxGeometry>
        </mxCell>
        <mxCell id="syjtHdC-8WKVYjB1pEny-89" value="" style="rounded=0;whiteSpace=wrap;html=1;rotation=90;" vertex="1" parent="syjtHdC-8WKVYjB1pEny-132">
          <mxGeometry x="498.75" y="346.44000000000005" width="61.25" height="26.88" as="geometry" />
        </mxCell>
        <mxCell id="syjtHdC-8WKVYjB1pEny-90" value="" style="endArrow=none;html=1;rounded=0;" edge="1" parent="syjtHdC-8WKVYjB1pEny-132">
          <mxGeometry width="50" height="50" relative="1" as="geometry">
            <mxPoint x="528.4299999999998" y="328" as="sourcePoint" />
            <mxPoint x="528.75" y="288" as="targetPoint" />
          </mxGeometry>
        </mxCell>
        <mxCell id="syjtHdC-8WKVYjB1pEny-91" value="" style="rounded=0;whiteSpace=wrap;html=1;rotation=90;" vertex="1" parent="syjtHdC-8WKVYjB1pEny-132">
          <mxGeometry x="607.5" y="346.44000000000005" width="61.25" height="26.88" as="geometry" />
        </mxCell>
        <mxCell id="syjtHdC-8WKVYjB1pEny-92" value="" style="endArrow=none;html=1;rounded=0;" edge="1" parent="syjtHdC-8WKVYjB1pEny-132">
          <mxGeometry width="50" height="50" relative="1" as="geometry">
            <mxPoint x="637.5" y="328" as="sourcePoint" />
            <mxPoint x="637.5" y="289" as="targetPoint" />
          </mxGeometry>
        </mxCell>
        <mxCell id="syjtHdC-8WKVYjB1pEny-100" value="&lt;font face=&quot;Times New Roman&quot;&gt;&lt;span style=&quot;font-size: 28px;&quot;&gt;3，39，40，41&amp;nbsp;&amp;nbsp;&lt;/span&gt;&lt;/font&gt;" style="rounded=0;whiteSpace=wrap;html=1;align=center;" vertex="1" parent="syjtHdC-8WKVYjB1pEny-132">
          <mxGeometry x="730" y="258" width="220" height="40" as="geometry" />
        </mxCell>
        <mxCell id="syjtHdC-8WKVYjB1pEny-101" value="" style="rounded=0;whiteSpace=wrap;html=1;rotation=90;" vertex="1" parent="syjtHdC-8WKVYjB1pEny-132">
          <mxGeometry x="788.75" y="346.44000000000005" width="61.25" height="26.88" as="geometry" />
        </mxCell>
        <mxCell id="syjtHdC-8WKVYjB1pEny-102" value="" style="endArrow=none;html=1;rounded=0;" edge="1" parent="syjtHdC-8WKVYjB1pEny-132">
          <mxGeometry width="50" height="50" relative="1" as="geometry">
            <mxPoint x="818.4299999999998" y="328" as="sourcePoint" />
            <mxPoint x="818.75" y="288" as="targetPoint" />
          </mxGeometry>
        </mxCell>
        <mxCell id="syjtHdC-8WKVYjB1pEny-103" value="" style="rounded=0;whiteSpace=wrap;html=1;rotation=90;" vertex="1" parent="syjtHdC-8WKVYjB1pEny-132">
          <mxGeometry x="732.75" y="346.44000000000005" width="61.25" height="26.88" as="geometry" />
        </mxCell>
        <mxCell id="syjtHdC-8WKVYjB1pEny-104" value="" style="endArrow=none;html=1;rounded=0;" edge="1" parent="syjtHdC-8WKVYjB1pEny-132">
          <mxGeometry width="50" height="50" relative="1" as="geometry">
            <mxPoint x="762.4299999999998" y="328" as="sourcePoint" />
            <mxPoint x="762.75" y="288" as="targetPoint" />
          </mxGeometry>
        </mxCell>
        <mxCell id="syjtHdC-8WKVYjB1pEny-105" value="" style="rounded=0;whiteSpace=wrap;html=1;rotation=90;" vertex="1" parent="syjtHdC-8WKVYjB1pEny-132">
          <mxGeometry x="842.75" y="346.44000000000005" width="61.25" height="26.88" as="geometry" />
        </mxCell>
        <mxCell id="syjtHdC-8WKVYjB1pEny-106" value="" style="endArrow=none;html=1;rounded=0;" edge="1" parent="syjtHdC-8WKVYjB1pEny-132">
          <mxGeometry width="50" height="50" relative="1" as="geometry">
            <mxPoint x="872.75" y="328" as="sourcePoint" />
            <mxPoint x="872.75" y="289" as="targetPoint" />
          </mxGeometry>
        </mxCell>
        <mxCell id="syjtHdC-8WKVYjB1pEny-107" value="" style="rounded=0;whiteSpace=wrap;html=1;rotation=90;" vertex="1" parent="syjtHdC-8WKVYjB1pEny-132">
          <mxGeometry x="899" y="346.44000000000005" width="61.25" height="26.88" as="geometry" />
        </mxCell>
        <mxCell id="syjtHdC-8WKVYjB1pEny-108" value="" style="endArrow=none;html=1;rounded=0;" edge="1" parent="syjtHdC-8WKVYjB1pEny-132">
          <mxGeometry width="50" height="50" relative="1" as="geometry">
            <mxPoint x="928.75" y="328" as="sourcePoint" />
            <mxPoint x="928.6799999999998" y="290" as="targetPoint" />
          </mxGeometry>
        </mxCell>
        <mxCell id="syjtHdC-8WKVYjB1pEny-120" value="&lt;font face=&quot;Times New Roman&quot;&gt;&lt;span style=&quot;font-size: 28px;&quot;&gt;2，21，30&amp;nbsp;&amp;nbsp;&lt;/span&gt;&lt;/font&gt;" style="rounded=0;whiteSpace=wrap;html=1;align=center;" vertex="1" parent="syjtHdC-8WKVYjB1pEny-132">
          <mxGeometry x="298.75" y="128" width="160" height="40" as="geometry" />
        </mxCell>
        <mxCell id="syjtHdC-8WKVYjB1pEny-121" value="&lt;font face=&quot;Times New Roman&quot;&gt;&lt;span style=&quot;font-size: 28px;&quot;&gt;2，42，49&amp;nbsp;&amp;nbsp;&lt;/span&gt;&lt;/font&gt;" style="rounded=0;whiteSpace=wrap;html=1;align=center;" vertex="1" parent="syjtHdC-8WKVYjB1pEny-132">
          <mxGeometry x="944.75" y="128" width="160" height="40" as="geometry" />
        </mxCell>
        <mxCell id="syjtHdC-8WKVYjB1pEny-122" value="" style="endArrow=none;html=1;rounded=0;exitX=0.5;exitY=0;exitDx=0;exitDy=0;" edge="1" parent="syjtHdC-8WKVYjB1pEny-132">
          <mxGeometry width="50" height="50" relative="1" as="geometry">
            <mxPoint x="126.375" y="258" as="sourcePoint" />
            <mxPoint x="328.75" y="158" as="targetPoint" />
          </mxGeometry>
        </mxCell>
        <mxCell id="syjtHdC-8WKVYjB1pEny-123" value="" style="endArrow=none;html=1;rounded=0;exitX=0.5;exitY=0;exitDx=0;exitDy=0;" edge="1" parent="syjtHdC-8WKVYjB1pEny-132">
          <mxGeometry width="50" height="50" relative="1" as="geometry">
            <mxPoint x="382.75" y="258" as="sourcePoint" />
            <mxPoint x="382.75" y="158" as="targetPoint" />
          </mxGeometry>
        </mxCell>
        <mxCell id="syjtHdC-8WKVYjB1pEny-124" value="" style="endArrow=none;html=1;rounded=0;entryX=0.938;entryY=0.75;entryDx=0;entryDy=0;entryPerimeter=0;exitX=0.5;exitY=0;exitDx=0;exitDy=0;" edge="1" source="syjtHdC-8WKVYjB1pEny-86" target="syjtHdC-8WKVYjB1pEny-120" parent="syjtHdC-8WKVYjB1pEny-132">
          <mxGeometry width="50" height="50" relative="1" as="geometry">
            <mxPoint x="428.75" y="288" as="sourcePoint" />
            <mxPoint x="478.75" y="238" as="targetPoint" />
          </mxGeometry>
        </mxCell>
        <mxCell id="syjtHdC-8WKVYjB1pEny-125" value="" style="endArrow=none;html=1;rounded=0;exitX=0.5;exitY=0;exitDx=0;exitDy=0;" edge="1" source="syjtHdC-8WKVYjB1pEny-93" parent="syjtHdC-8WKVYjB1pEny-132">
          <mxGeometry width="50" height="50" relative="1" as="geometry">
            <mxPoint x="1103.7500000000005" y="258.0000000000002" as="sourcePoint" />
            <mxPoint x="1031.75" y="158" as="targetPoint" />
          </mxGeometry>
        </mxCell>
        <mxCell id="syjtHdC-8WKVYjB1pEny-126" value="" style="endArrow=none;html=1;rounded=0;exitX=0.5;exitY=0;exitDx=0;exitDy=0;" edge="1" source="syjtHdC-8WKVYjB1pEny-100" parent="syjtHdC-8WKVYjB1pEny-132">
          <mxGeometry width="50" height="50" relative="1" as="geometry">
            <mxPoint x="804.5999999999999" y="256.72000000000025" as="sourcePoint" />
            <mxPoint x="978.75" y="157" as="targetPoint" />
          </mxGeometry>
        </mxCell>
        <mxCell id="syjtHdC-8WKVYjB1pEny-127" value="" style="endArrow=none;html=1;rounded=0;exitX=0.5;exitY=0;exitDx=0;exitDy=0;" edge="1" parent="syjtHdC-8WKVYjB1pEny-132">
          <mxGeometry width="50" height="50" relative="1" as="geometry">
            <mxPoint x="1301.2499999999995" y="258.0000000000002" as="sourcePoint" />
            <mxPoint x="1090.75" y="158" as="targetPoint" />
          </mxGeometry>
        </mxCell>
        <mxCell id="syjtHdC-8WKVYjB1pEny-128" value="&lt;font face=&quot;Times New Roman&quot;&gt;&lt;span style=&quot;font-size: 29px;&quot;&gt;1，38&lt;/span&gt;&lt;/font&gt;" style="rounded=0;whiteSpace=wrap;html=1;align=center;" vertex="1" parent="syjtHdC-8WKVYjB1pEny-132">
          <mxGeometry x="648.75" y="18" width="160" height="40" as="geometry" />
        </mxCell>
        <mxCell id="syjtHdC-8WKVYjB1pEny-129" value="" style="endArrow=none;html=1;rounded=0;exitX=0.5;exitY=0;exitDx=0;exitDy=0;" edge="1" source="syjtHdC-8WKVYjB1pEny-120" parent="syjtHdC-8WKVYjB1pEny-132">
          <mxGeometry width="50" height="50" relative="1" as="geometry">
            <mxPoint x="871.75" y="268" as="sourcePoint" />
            <mxPoint x="648.75" y="58" as="targetPoint" />
          </mxGeometry>
        </mxCell>
        <mxCell id="syjtHdC-8WKVYjB1pEny-130" value="" style="endArrow=none;html=1;rounded=0;entryX=1;entryY=1;entryDx=0;entryDy=0;exitX=0.5;exitY=0;exitDx=0;exitDy=0;" edge="1" source="syjtHdC-8WKVYjB1pEny-121" target="syjtHdC-8WKVYjB1pEny-128" parent="syjtHdC-8WKVYjB1pEny-132">
          <mxGeometry width="50" height="50" relative="1" as="geometry">
            <mxPoint x="958.75" y="268" as="sourcePoint" />
            <mxPoint x="1008.75" y="218" as="targetPoint" />
          </mxGeometry>
        </mxCell>
        <mxCell id="syjtHdC-8WKVYjB1pEny-133" value="" style="group;rotation=90;" vertex="1" connectable="0" parent="syjtHdC-8WKVYjB1pEny-132">
          <mxGeometry x="971.75" y="258" width="160" height="132.50500000000005" as="geometry" />
        </mxCell>
        <mxCell id="syjtHdC-8WKVYjB1pEny-93" value="&lt;font face=&quot;Times New Roman&quot;&gt;&lt;span style=&quot;font-size: 28px;&quot;&gt;2，45，48&amp;nbsp;&amp;nbsp;&lt;/span&gt;&lt;/font&gt;" style="rounded=0;whiteSpace=wrap;html=1;align=center;" vertex="1" parent="syjtHdC-8WKVYjB1pEny-133">
          <mxGeometry width="160" height="40" as="geometry" />
        </mxCell>
        <mxCell id="syjtHdC-8WKVYjB1pEny-94" value="" style="rounded=0;whiteSpace=wrap;html=1;rotation=90;" vertex="1" parent="syjtHdC-8WKVYjB1pEny-133">
          <mxGeometry x="56.75" y="88.44000000000005" width="61.25" height="26.88" as="geometry" />
        </mxCell>
        <mxCell id="syjtHdC-8WKVYjB1pEny-95" value="" style="endArrow=none;html=1;rounded=0;" edge="1" parent="syjtHdC-8WKVYjB1pEny-133">
          <mxGeometry width="50" height="50" relative="1" as="geometry">
            <mxPoint x="86.42999999999984" y="70" as="sourcePoint" />
            <mxPoint x="86.75" y="30" as="targetPoint" />
          </mxGeometry>
        </mxCell>
        <mxCell id="syjtHdC-8WKVYjB1pEny-96" value="" style="rounded=0;whiteSpace=wrap;html=1;rotation=90;" vertex="1" parent="syjtHdC-8WKVYjB1pEny-133">
          <mxGeometry y="88.44000000000005" width="61.25" height="26.88" as="geometry" />
        </mxCell>
        <mxCell id="syjtHdC-8WKVYjB1pEny-97" value="" style="endArrow=none;html=1;rounded=0;" edge="1" parent="syjtHdC-8WKVYjB1pEny-133">
          <mxGeometry width="50" height="50" relative="1" as="geometry">
            <mxPoint x="29.679999999999836" y="70" as="sourcePoint" />
            <mxPoint x="30" y="30" as="targetPoint" />
          </mxGeometry>
        </mxCell>
        <mxCell id="syjtHdC-8WKVYjB1pEny-98" value="" style="rounded=0;whiteSpace=wrap;html=1;rotation=90;" vertex="1" parent="syjtHdC-8WKVYjB1pEny-133">
          <mxGeometry x="108.75" y="88.44000000000005" width="61.25" height="26.88" as="geometry" />
        </mxCell>
        <mxCell id="syjtHdC-8WKVYjB1pEny-99" value="" style="endArrow=none;html=1;rounded=0;" edge="1" parent="syjtHdC-8WKVYjB1pEny-133">
          <mxGeometry width="50" height="50" relative="1" as="geometry">
            <mxPoint x="138.75" y="70" as="sourcePoint" />
            <mxPoint x="138.75" y="31" as="targetPoint" />
          </mxGeometry>
        </mxCell>
        <mxCell id="syjtHdC-8WKVYjB1pEny-135" value="" style="group;rotation=90;" vertex="1" connectable="0" parent="syjtHdC-8WKVYjB1pEny-132">
          <mxGeometry x="1170" y="258" width="160" height="132.50500000000005" as="geometry" />
        </mxCell>
        <mxCell id="syjtHdC-8WKVYjB1pEny-136" value="&lt;font face=&quot;Times New Roman&quot;&gt;&lt;span style=&quot;font-size: 28px;&quot;&gt;2，50，55&amp;nbsp;&amp;nbsp;&lt;/span&gt;&lt;/font&gt;" style="rounded=0;whiteSpace=wrap;html=1;align=center;" vertex="1" parent="syjtHdC-8WKVYjB1pEny-135">
          <mxGeometry width="160" height="40" as="geometry" />
        </mxCell>
        <mxCell id="syjtHdC-8WKVYjB1pEny-137" value="" style="rounded=0;whiteSpace=wrap;html=1;rotation=90;" vertex="1" parent="syjtHdC-8WKVYjB1pEny-135">
          <mxGeometry x="56.75" y="88.44000000000005" width="61.25" height="26.88" as="geometry" />
        </mxCell>
        <mxCell id="syjtHdC-8WKVYjB1pEny-138" value="" style="endArrow=none;html=1;rounded=0;" edge="1" parent="syjtHdC-8WKVYjB1pEny-135">
          <mxGeometry width="50" height="50" relative="1" as="geometry">
            <mxPoint x="86.42999999999984" y="70" as="sourcePoint" />
            <mxPoint x="86.75" y="30" as="targetPoint" />
          </mxGeometry>
        </mxCell>
        <mxCell id="syjtHdC-8WKVYjB1pEny-139" value="" style="rounded=0;whiteSpace=wrap;html=1;rotation=90;" vertex="1" parent="syjtHdC-8WKVYjB1pEny-135">
          <mxGeometry y="88.44000000000005" width="61.25" height="26.88" as="geometry" />
        </mxCell>
        <mxCell id="syjtHdC-8WKVYjB1pEny-140" value="" style="endArrow=none;html=1;rounded=0;" edge="1" parent="syjtHdC-8WKVYjB1pEny-135">
          <mxGeometry width="50" height="50" relative="1" as="geometry">
            <mxPoint x="29.679999999999836" y="70" as="sourcePoint" />
            <mxPoint x="30" y="30" as="targetPoint" />
          </mxGeometry>
        </mxCell>
        <mxCell id="syjtHdC-8WKVYjB1pEny-141" value="" style="rounded=0;whiteSpace=wrap;html=1;rotation=90;" vertex="1" parent="syjtHdC-8WKVYjB1pEny-135">
          <mxGeometry x="108.75" y="88.44000000000005" width="61.25" height="26.88" as="geometry" />
        </mxCell>
        <mxCell id="syjtHdC-8WKVYjB1pEny-142" value="" style="endArrow=none;html=1;rounded=0;" edge="1" parent="syjtHdC-8WKVYjB1pEny-135">
          <mxGeometry width="50" height="50" relative="1" as="geometry">
            <mxPoint x="138.75" y="70" as="sourcePoint" />
            <mxPoint x="138.75" y="31" as="targetPoint" />
          </mxGeometry>
        </mxCell>
      </root>
    </mxGraphModel>
  </diagram>
</mxfile>
